<?xml version="1.0" encoding="UTF-8"?>
<svg id="Layer_4" data-name="Layer 4" xmlns="http://www.w3.org/2000/svg" viewBox="0 0 64 64">
  <defs>
    <style>
      .cls-1 {
        fill: #12283a;
      }

      .cls-1, .cls-2, .cls-3 {
        stroke-width: 0px;
      }

      .cls-2 {
        fill: #fcfdfd;
      }

      .cls-3 {
        fill: #fff;
      }
    </style>
  </defs>
  <g>
    <g>
      <path class="cls-1" d="M51.24,33.54c-.09,0-.17,0-.26.01-.11-.88-.2-1.77-.28-2.67-.37-2.82-.35-5.74-1.93-8.29.97-3.09.28-6.37-.65-9.36-.46-1.53-1.26-3.18-1.94-4.66-.83,1.32-1.72,2.65-2.67,3.92-.04-3.11-1.18-6.2-2.68-8.93-1.3,2.44-3.43,4.42-5.73,6.05-.14-2.62-1.28-5.09-2.7-7.31-1.21,2.08-2.55,4.17-4.04,6.07-.69.89-1.42,1.74-2.19,2.54-.17-1.78-.65-3.53-1.42-5.18-5.72,4.36-11.09,9.24-14.69,15.57-.83,1.51-1.49,3.14-1.87,4.89-.34,1.94.24,3.62.77,5.37.82,2.8,2.38,5.43,2.96,8.26-3.47,1-3.6,5.85-2.5,8.79.74,3.16,4.99,5.5,8.04,3.71,3.48,8.36,13.46,11.31,21.77,9.38,7.53-1.97,11.45-9.06,12.86-15.96,2.18-.52,3.83-3.04,3.83-6.06,0-3.4-2.09-6.16-4.67-6.16Z"/>
      <path class="cls-1" d="M34.2,62.92c-2.73,0-5.43-.49-7.91-1.45-4.24-1.65-7.39-4.5-9.16-8.27-1.37.56-2.97.52-4.51-.13-1.93-.82-3.39-2.45-3.83-4.26-.74-2.02-.99-5.01.1-7.19.51-1.02,1.29-1.77,2.26-2.2-.34-1.35-.88-2.65-1.46-4.03-.49-1.17-1-2.39-1.36-3.64l-.1-.31c-.51-1.66-1.03-3.37-.69-5.34.36-1.7,1.01-3.41,1.93-5.09,3.94-6.95,10.01-12.08,14.86-15.78l.63-.48.34.72c.6,1.28,1.04,2.63,1.29,4.02.42-.48.83-.98,1.24-1.5,1.29-1.65,2.6-3.61,3.99-6l.53-.91.57.88c1.48,2.31,2.37,4.44,2.68,6.48,2.14-1.65,3.66-3.35,4.64-5.17l.56-1.04.57,1.03c1.43,2.58,2.31,5.07,2.63,7.43.54-.78,1.08-1.6,1.62-2.46l.63-1.01.49,1.08c.1.22.2.44.31.67.62,1.34,1.26,2.72,1.66,4.07.84,2.68,1.67,6.15.73,9.46,1.22,2.12,1.46,4.43,1.69,6.67.06.53.11,1.09.18,1.62v.03c.06.71.13,1.41.21,2.08,2.79.2,5,3.17,5,6.79,0,3.09-1.63,5.78-3.92,6.56-.94,4.31-4.02,13.65-13.24,16.07-1.71.4-3.45.59-5.19.59Z"/>
    </g>
    <ellipse class="cls-3" cx="51.24" cy="39.7" rx="3.77" ry="5.26"/>
    <path class="cls-1" d="M51.24,45.85c-2.57,0-4.67-2.76-4.67-6.16,0-3.4,2.09-6.16,4.67-6.16s4.67,2.76,4.67,6.16c0,3.4-2.09,6.16-4.67,6.16ZM51.24,35.34c-1.56,0-2.87,2-2.87,4.36s1.32,4.36,2.87,4.36,2.87-2,2.87-4.36-1.32-4.36-2.87-4.36Z"/>
    <g>
      <path class="cls-2" d="M17.69,50.82s2.95,11.15,19.86,10.32c8.12-.83,15.53-14.38,13.71-21.59-1.82-7.21-.83-13.59-3.56-16.82,1.91-4.72-1.66-12.1-1.66-12.1-1.91,2.98-3.98,5.22-3.98,5.22,1.57-4.89-1.33-10.28-1.33-10.28-1.82,2.98-6.71,5.97-6.71,5.97.66-3.65-1.62-7.29-1.62-7.29,0,0-3.27,5.64-7.16,8.95.17-3.48-.91-5.88-.91-5.88,0,0-13.3,9.8-15.17,19.14-.73,3.65,4.14,11.77,3.9,14.17-3.9.33-3.74,5.07-2.4,8.45.97,2.46,4.81,4.39,7.05,1.74Z"/>
      <path class="cls-1" d="M52.11,39.29c-.76-2.71-1.16-5.53-1.4-8.41-.37-2.82-.35-5.73-1.93-8.29.97-3.09.28-6.37-.65-9.36-.46-1.53-1.26-3.18-1.94-4.66-.83,1.32-1.72,2.65-2.67,3.92-.04-3.11-1.18-6.2-2.68-8.93-1.3,2.44-3.43,4.42-5.73,6.05-.14-2.62-1.28-5.09-2.7-7.31-1.21,2.08-2.54,4.17-4.04,6.07-.69.89-1.43,1.74-2.19,2.54-.17-1.79-.65-3.53-1.42-5.18-5.72,4.36-11.09,9.24-14.69,15.57-.83,1.51-1.49,3.15-1.87,4.89-.33,1.94.24,3.61.77,5.37.82,2.8,2.38,5.43,2.96,8.25-3.47,1.01-3.6,5.85-2.5,8.79.74,3.16,4.99,5.5,8.04,3.71,3.48,8.35,13.46,11.31,21.77,9.38,8.19-2.15,12.12-10.36,13.17-17.78.16-1.52.12-3.1-.29-4.64ZM37.02,60.07c-4.75.2-9.68-.46-13.58-3.28-2.13-1.53-3.89-3.64-4.76-6.13-.04-.31-.42-.76-.77-.8-.43-.02-.99.29-1.29.65-1.92,1.6-4.56-.48-5.3-2.49-.71-2.2-1.21-6.12,1.81-6.39l.37-.03c.27-.02.49-.24.51-.51.01-.18.02-.35.02-.35.02-1.93-.82-3.48-1.44-5.2-1.01-2.77-2.75-6.09-2.45-8.92.32-1.49.9-2.95,1.67-4.34,2.91-5.17,7.37-9.54,12.01-13.27.44,1.74.46,3.65.37,5.45-.02.39.44.62.74.37,2.89-2.45,5.31-5.35,7.36-8.51.67,1.61,1.02,3.41.74,5.07,0,0-.14.81-.24,1.45-.05.29.27.5.52.34,2.6-1.63,5.17-3.3,7.17-5.64.98,2.55,1.42,5.42.63,8.03l-.97,3.41c-.05.18.17.3.3.17,0,0,4.39-2.16,5.38-6.41.14.38.28.75.4,1.13.96,2.82,1.45,6.07.49,8.82-.07.21-.03.45.13.61.05.05,1.85,2.24,2.47,7.73.32,2.86,1.12,5.7,1.29,8.65.75,12.63-7.45,19.63-13.59,20.4Z"/>
    </g>
  </g>
  <g>
    <path class="cls-1" d="M26.81,42.05c2.06-.47,4.38-1.55,5.18-3.65.11-.27.42-.41.69-.3.29.1.34.42.38.68.15.78-.1,1.56-.49,2.2-1.23,1.76-3.48,2.59-5.56,2.18-.71-.02-.91-.92-.21-1.12h0Z"/>
    <path class="cls-1" d="M41.8,36.71c.98,1.71,3.1,2.69,5.01,2,.48-.14.84.51.47.83,0,0-.16.15-.16.15-.98,1-2.6,1.08-3.81.46-1.22-.59-2.11-1.63-2.42-2.95-.11-.3.02-.66.36-.73.22-.05.44.05.55.24h0Z"/>
    <path class="cls-1" d="M38.39,50.7c-2.6.69-5.75.13-7.4-2.11.36-.17.75-.27,1.12-.32.62-.07.59-1-.03-1.03-1.44-.11-3,.67-3.45,2.11-.17.5-.13,1-.04,1.46.09.6,1.03.52,1.03-.09,0-.33.02-.66.14-.94.07-.2.19-.38.33-.54.29.74.78,1.34,1.36,1.86,1.99,1.65,4.96,1.76,7.2.6.6-.2.39-1.12-.25-1.01Z"/>
    <path class="cls-1" d="M40.73,43.59c2.11-.54,5.12.98,3.08,3.37-.63.75-3.73,1.99-3.9.45.02-1.26,1.49-.95,2.42-1.26,2.21-.83.24-1.98-1.61-1.77-.5.06-.5-.79,0-.8h0Z"/>
  </g>
</svg>