<?xml version="1.0" encoding="UTF-8"?>
<svg id="Layer_4" data-name="Layer 4" xmlns="http://www.w3.org/2000/svg" xmlns:xlink="http://www.w3.org/1999/xlink" viewBox="0 0 268.33 73.88">
  <defs>
    <style>
      .cls-1 {
        fill: url(#linear-gradient);
      }

      .cls-1, .cls-2, .cls-3, .cls-4, .cls-5, .cls-6, .cls-7, .cls-8, .cls-9, .cls-10, .cls-11 {
        stroke-width: 0px;
      }

      .cls-2 {
        fill: url(#linear-gradient-6);
      }

      .cls-3 {
        fill: url(#linear-gradient-5);
      }

      .cls-4, .cls-9 {
        fill: #12283a;
      }

      .cls-5 {
        fill: #71aee1;
      }

      .cls-12 {
        opacity: .3;
      }

      .cls-6 {
        fill: #71b2e2;
      }

      .cls-7 {
        fill: url(#linear-gradient-4);
        opacity: .5;
      }

      .cls-13 {
        stroke: #a8d2f4;
        stroke-width: .38px;
      }

      .cls-13, .cls-14, .cls-15 {
        fill: none;
        stroke-linecap: round;
        stroke-linejoin: round;
      }

      .cls-14 {
        stroke: #4293d7;
        stroke-width: 1.13px;
      }

      .cls-8 {
        fill: url(#linear-gradient-2);
      }

      .cls-9, .cls-16 {
        opacity: .2;
      }

      .cls-15 {
        stroke: #12283a;
        stroke-width: 3.4px;
      }

      .cls-10 {
        fill: #fff;
      }

      .cls-11 {
        fill: url(#linear-gradient-3);
        opacity: .4;
      }
    </style>
    <linearGradient id="linear-gradient" x1="171.89" y1="21.56" x2="171.85" y2="80.96" gradientUnits="userSpaceOnUse">
      <stop offset=".17" stop-color="#fcfdfd"/>
      <stop offset=".44" stop-color="#e9ecef"/>
      <stop offset=".63" stop-color="#ddeefc"/>
    </linearGradient>
    <linearGradient id="linear-gradient-2" x1="-29.16" y1="-57.45" x2="86.78" y2="102.05" gradientTransform="translate(56.55 -14.33) rotate(65.32)" gradientUnits="userSpaceOnUse">
      <stop offset=".52" stop-color="#122d3d"/>
      <stop offset=".58" stop-color="#133042"/>
      <stop offset=".66" stop-color="#193c53"/>
      <stop offset=".76" stop-color="#214e6f"/>
      <stop offset=".86" stop-color="#2d6896"/>
      <stop offset=".97" stop-color="#3d88c7"/>
      <stop offset="1" stop-color="#4293d7"/>
    </linearGradient>
    <linearGradient id="linear-gradient-3" x1="47.49" y1="3.58" x2="6.22" y2="52.36" gradientTransform="translate(-1.09 -1.06) scale(1.02)" gradientUnits="userSpaceOnUse">
      <stop offset="0" stop-color="#72b1e4" stop-opacity="0"/>
      <stop offset=".48" stop-color="#72b1e4"/>
      <stop offset="1" stop-color="#72b1e4" stop-opacity="0"/>
    </linearGradient>
    <linearGradient id="linear-gradient-4" x1="81.77" y1="73.63" x2="46.9" y2="114.84" gradientTransform="translate(115.89 140.14) rotate(-180)" xlink:href="#linear-gradient-3"/>
    <linearGradient id="linear-gradient-5" x1="5.57" y1="-1.25" x2="76.47" y2="78.67" gradientUnits="userSpaceOnUse">
      <stop offset=".17" stop-color="#72b1e4"/>
      <stop offset="1" stop-color="#4293d7"/>
    </linearGradient>
    <linearGradient id="linear-gradient-6" x1="63.2" y1="51.64" x2="-102.41" y2="-60.46" gradientUnits="userSpaceOnUse">
      <stop offset=".17" stop-color="#fcfdfd"/>
      <stop offset=".53" stop-color="#e9ecef"/>
    </linearGradient>
  </defs>
  <g>
    <g>
      <path class="cls-15" d="M109.96,35.96l1.63-4.69h-12.27l-1.63,4.69h4.9c-1.34,4.11-3.73,7.79-7.46,7.79-2.47,0-3.73-1.97-3.73-5.19,0-7.29,4.52-17.72,9.84-17.72,2.51,0,4.27,1.97,3.14,5.82h5.53c1.8-6.62-2.64-11.14-7.96-11.14-10.31,0-16.25,13.78-16.25,23.33,0,7,4.44,10.18,8.63,10.18,6.03,0,11.27-4.73,13.61-13.07h2.01Z"/>
      <path class="cls-15" d="M145.37,28.63c0-5.2-4.45-8.38-12.83-6.63v.08l-7.53,21.9,1.53-21.98h-6.67l-12.67,22.84h5.28l2.18-4.37h5.84l-.4,4.37h9.42l2.03-5.92c.99.04,1.99,0,3.06-.16.36,2.07.99,4.61,1.43,6.08h5.17c-.88-2.3-1.67-4.69-2.39-7.27,3.62-1.59,6.56-4.57,6.56-8.94ZM120.86,36.38h-4.17l5.04-10.13-.87,10.13ZM132.93,34.95l3.14-9.14c2.46-.16,4.25.64,4.25,3.06,0,3.14-2.86,5.92-7.39,6.08Z"/>
      <polygon class="cls-15" points="158.4 22 151.65 32.09 151.49 22 146.76 22 147.56 37.21 144.93 44.84 149.82 44.84 152.28 37.69 163.8 22 158.4 22"/>
      <path class="cls-15" d="M190.5,17.43c-3.54,7.31-6.95,15.45-10.17,22.92.4-5.8.91-12.2,1.39-17.8h-5.24c-3.1,5.64-6.24,12-9.06,17.88,1.19-7.51,2.58-15.65,4.13-23h-5.17c-1.87,10.01-3.5,20.97-4.89,30.99h6.4c2.66-5.56,5.88-12.08,8.82-17.96-.56,5.84-1.03,12.43-1.39,17.96h6.24c4.37-10.01,9.18-20.98,14.22-30.99h-5.28Z"/>
      <polygon class="cls-15" points="195.11 22 187.25 44.84 192.21 44.84 200.08 22 195.11 22"/>
      <polygon class="cls-15" points="213.31 22 208.02 38.2 207.63 22 202.23 22 194.36 44.84 198.89 44.84 203.73 29.94 204.17 44.84 209.81 44.84 217.68 22 213.31 22"/>
      <polygon class="cls-15" points="231.79 40.71 238.22 22 233.49 22 233.25 22 219.03 22 217.64 26.09 222.41 26.09 215.93 44.84 220.9 44.84 227.37 26.09 231.85 26.09 225.39 44.84 237.43 44.84 238.86 40.71 231.79 40.71"/>
      <polygon class="cls-15" points="258.01 26.09 259.44 22 246.6 22 238.74 44.84 251.53 44.84 252.96 40.71 245.13 40.71 246.92 35.5 252.29 35.5 253.71 31.37 248.35 31.37 250.18 26.09 258.01 26.09"/>
    </g>
    <g>
      <path class="cls-14" d="M109.62,35.62l1.63-4.69h-12.27l-1.63,4.69h4.9c-1.34,4.11-3.73,7.79-7.46,7.79-2.47,0-3.73-1.97-3.73-5.19,0-7.29,4.52-17.72,9.84-17.72,2.51,0,4.27,1.97,3.14,5.82h5.53c1.8-6.62-2.64-11.14-7.96-11.14-10.31,0-16.25,13.78-16.25,23.33,0,7,4.44,10.18,8.63,10.18,6.03,0,11.27-4.73,13.61-13.07h2.01Z"/>
      <path class="cls-14" d="M145.03,28.29c0-5.2-4.45-8.38-12.83-6.63v.08l-7.53,21.9,1.53-21.98h-6.67l-12.67,22.84h5.28l2.18-4.37h5.84l-.4,4.37h9.42l2.03-5.92c.99.04,1.99,0,3.06-.16.36,2.07.99,4.61,1.43,6.08h5.17c-.88-2.3-1.67-4.69-2.39-7.27,3.62-1.59,6.56-4.57,6.56-8.94ZM120.52,36.04h-4.17l5.04-10.13-.87,10.13ZM132.59,34.61l3.14-9.14c2.46-.16,4.25.64,4.25,3.06,0,3.14-2.86,5.92-7.39,6.08Z"/>
      <polygon class="cls-14" points="158.06 21.66 151.31 31.75 151.15 21.66 146.42 21.66 147.22 36.87 144.59 44.5 149.48 44.5 151.94 37.35 163.46 21.66 158.06 21.66"/>
      <path class="cls-14" d="M190.16,17.09c-3.54,7.31-6.95,15.45-10.17,22.92.4-5.8.91-12.2,1.39-17.8h-5.24c-3.1,5.64-6.24,12-9.06,17.88,1.19-7.51,2.58-15.65,4.13-23h-5.17c-1.87,10.01-3.5,20.97-4.89,30.99h6.4c2.66-5.56,5.88-12.08,8.82-17.96-.56,5.84-1.03,12.43-1.39,17.96h6.24c4.37-10.01,9.18-20.98,14.22-30.99h-5.28Z"/>
      <polygon class="cls-14" points="194.77 21.66 186.91 44.5 191.87 44.5 199.74 21.66 194.77 21.66"/>
      <polygon class="cls-14" points="212.97 21.66 207.68 37.86 207.29 21.66 201.89 21.66 194.02 44.5 198.55 44.5 203.39 29.6 203.83 44.5 209.47 44.5 217.34 21.66 212.97 21.66"/>
      <polygon class="cls-14" points="231.45 40.37 237.88 21.66 233.15 21.66 232.91 21.66 218.69 21.66 217.3 25.75 222.07 25.75 215.59 44.5 220.56 44.5 227.03 25.75 231.51 25.75 225.05 44.5 237.09 44.5 238.52 40.37 231.45 40.37"/>
      <polygon class="cls-14" points="257.67 25.75 259.1 21.66 246.26 21.66 238.4 44.5 251.19 44.5 252.62 40.37 244.79 40.37 246.58 35.16 251.95 35.16 253.37 31.03 248.01 31.03 249.84 25.75 257.67 25.75"/>
    </g>
    <g>
      <path class="cls-1" d="M109.28,35.28l1.63-4.69h-12.27l-1.63,4.69h4.9c-1.34,4.11-3.73,7.79-7.46,7.79-2.47,0-3.73-1.97-3.73-5.19,0-7.29,4.52-17.72,9.84-17.72,2.51,0,4.27,1.97,3.14,5.82h5.53c1.8-6.62-2.64-11.14-7.96-11.14-10.31,0-16.25,13.78-16.25,23.33,0,7,4.44,10.18,8.63,10.18,6.03,0,11.27-4.73,13.61-13.07h2.01Z"/>
      <path class="cls-1" d="M144.69,27.95c0-5.2-4.45-8.38-12.83-6.63v.08l-7.53,21.9,1.53-21.98h-6.67l-12.67,22.84h5.28l2.18-4.37h5.84l-.4,4.37h9.42l2.03-5.92c.99.04,1.99,0,3.06-.16.36,2.07.99,4.61,1.43,6.08h5.17c-.88-2.3-1.67-4.69-2.39-7.27,3.62-1.59,6.56-4.57,6.56-8.94ZM120.18,35.7h-4.17l5.04-10.13-.87,10.13ZM132.25,34.27l3.14-9.14c2.46-.16,4.25.64,4.25,3.06,0,3.14-2.86,5.92-7.39,6.08Z"/>
      <polygon class="cls-1" points="157.72 21.32 150.97 31.41 150.81 21.32 146.08 21.32 146.88 36.53 144.25 44.16 149.14 44.16 151.6 37.01 163.12 21.32 157.72 21.32"/>
      <path class="cls-1" d="M189.82,16.75c-3.54,7.31-6.95,15.45-10.17,22.92.4-5.8.91-12.2,1.39-17.8h-5.24c-3.1,5.64-6.24,12-9.06,17.88,1.19-7.51,2.58-15.65,4.13-23h-5.17c-1.87,10.01-3.5,20.97-4.89,30.99h6.4c2.66-5.56,5.88-12.08,8.82-17.96-.56,5.84-1.03,12.43-1.39,17.96h6.24c4.37-10.01,9.18-20.98,14.22-30.99h-5.28Z"/>
      <polygon class="cls-1" points="194.43 21.32 186.57 44.16 191.53 44.16 199.4 21.32 194.43 21.32"/>
      <polygon class="cls-1" points="212.63 21.32 207.34 37.52 206.95 21.32 201.55 21.32 193.68 44.16 198.21 44.16 203.05 29.26 203.49 44.16 209.13 44.16 217 21.32 212.63 21.32"/>
      <polygon class="cls-1" points="231.11 40.03 237.54 21.32 232.81 21.32 232.57 21.32 218.35 21.32 216.96 25.41 221.73 25.41 215.25 44.16 220.22 44.16 226.69 25.41 231.17 25.41 224.71 44.16 236.75 44.16 238.18 40.03 231.11 40.03"/>
      <polygon class="cls-1" points="257.33 25.41 258.76 21.32 245.92 21.32 238.06 44.16 250.85 44.16 252.28 40.03 244.45 40.03 246.24 34.82 251.61 34.82 253.04 30.69 247.67 30.69 249.5 25.41 257.33 25.41"/>
    </g>
    <g>
      <path class="cls-13" d="M109.28,35.28l1.63-4.69h-12.27l-1.63,4.69h4.9c-1.34,4.11-3.73,7.79-7.46,7.79-2.47,0-3.73-1.97-3.73-5.19,0-7.29,4.52-17.72,9.84-17.72,2.51,0,4.27,1.97,3.14,5.82h5.53c1.8-6.62-2.64-11.14-7.96-11.14-10.31,0-16.25,13.78-16.25,23.33,0,7,4.44,10.18,8.63,10.18,6.03,0,11.27-4.73,13.61-13.07h2.01Z"/>
      <path class="cls-13" d="M144.69,27.95c0-5.2-4.45-8.38-12.83-6.63v.08l-7.53,21.9,1.53-21.98h-6.67l-12.67,22.84h5.28l2.18-4.37h5.84l-.4,4.37h9.42l2.03-5.92c.99.04,1.99,0,3.06-.16.36,2.07.99,4.61,1.43,6.08h5.17c-.88-2.3-1.67-4.69-2.39-7.27,3.62-1.59,6.56-4.57,6.56-8.94ZM120.18,35.7h-4.17l5.04-10.13-.87,10.13ZM132.25,34.27l3.14-9.14c2.46-.16,4.25.64,4.25,3.06,0,3.14-2.86,5.92-7.39,6.08Z"/>
      <polygon class="cls-13" points="157.72 21.32 150.97 31.41 150.81 21.32 146.08 21.32 146.88 36.53 144.25 44.16 149.14 44.16 151.6 37.01 163.12 21.32 157.72 21.32"/>
      <path class="cls-13" d="M189.82,16.75c-3.54,7.31-6.95,15.45-10.17,22.92.4-5.8.91-12.2,1.39-17.8h-5.24c-3.1,5.64-6.24,12-9.06,17.88,1.19-7.51,2.58-15.65,4.13-23h-5.17c-1.87,10.01-3.5,20.97-4.89,30.99h6.4c2.66-5.56,5.88-12.08,8.82-17.96-.56,5.84-1.03,12.43-1.39,17.96h6.24c4.37-10.01,9.18-20.98,14.22-30.99h-5.28Z"/>
      <polygon class="cls-13" points="194.43 21.32 186.57 44.16 191.53 44.16 199.4 21.32 194.43 21.32"/>
      <polygon class="cls-13" points="212.63 21.32 207.34 37.52 206.95 21.32 201.55 21.32 193.68 44.16 198.21 44.16 203.05 29.26 203.49 44.16 209.13 44.16 217 21.32 212.63 21.32"/>
      <polygon class="cls-13" points="231.11 40.03 237.54 21.32 232.81 21.32 232.57 21.32 218.35 21.32 216.96 25.41 221.73 25.41 215.25 44.16 220.22 44.16 226.69 25.41 231.17 25.41 224.71 44.16 236.75 44.16 238.18 40.03 231.11 40.03"/>
      <polygon class="cls-13" points="257.33 25.41 258.76 21.32 245.92 21.32 238.06 44.16 250.85 44.16 252.28 40.03 244.45 40.03 246.24 34.82 251.61 34.82 253.04 30.69 247.67 30.69 249.5 25.41 257.33 25.41"/>
    </g>
  </g>
  <g>
    <g>
      <path class="cls-6" d="M106.17,56.3c2.36,0,3.89,1.82,3.4,4.59s-2.67,4.67-5.03,4.67c-1.48,0-2.41-.75-2.88-1.45l-.98,5.56h-1.85l2.33-13.22h1.85l-.23,1.32c.7-.75,1.92-1.46,3.38-1.46ZM105.48,57.91c-1.38,0-2.91,1.09-3.25,3.01-.34,1.94.8,3.03,2.18,3.03s2.93-1.12,3.27-3.06-.8-2.98-2.2-2.98Z"/>
      <path class="cls-6" d="M110.28,65.41l1.58-8.96h1.85l-.28,1.58c.7-1.04,1.71-1.72,2.99-1.72l-.34,1.92h-.47c-1.37,0-2.31.57-2.63,2.41l-.85,4.78h-1.85Z"/>
      <path class="cls-6" d="M120.12,65.55c-2.29,0-3.82-1.53-3.82-3.77,0-3.04,2.31-5.48,5.43-5.48,2.29,0,3.89,1.53,3.89,3.79,0,3.07-2.41,5.47-5.5,5.47ZM120.35,63.99c1.92,0,3.35-1.81,3.35-3.79,0-1.56-1.03-2.34-2.23-2.34-1.95,0-3.25,1.82-3.25,3.84,0,1.51.93,2.29,2.13,2.29Z"/>
      <path class="cls-6" d="M131.49,56.3c1.17,0,2.31.55,2.85,1.4l.76-4.33h1.87l-2.13,12.04h-1.87l.24-1.35c-.72.81-1.9,1.5-3.37,1.5-2.36,0-3.9-1.9-3.42-4.67.49-2.77,2.68-4.59,5.06-4.59ZM131.59,57.91c-1.38,0-2.91,1.04-3.25,2.98s.8,3.06,2.18,3.06,2.91-1.09,3.25-3.03c.34-1.92-.78-3.01-2.18-3.01Z"/>
      <path class="cls-6" d="M145.08,65.41h-1.85l.18-1.06c-.72.75-1.79,1.19-2.85,1.19-2.1,0-3.46-1.32-3.03-3.82l.93-5.27h1.84l-.88,4.99c-.28,1.64.46,2.49,1.81,2.49s2.38-.81,2.68-2.38l.89-5.11h1.85l-1.58,8.96Z"/>
      <path class="cls-6" d="M152.57,56.3c2.2,0,3.43,1.09,3.61,2.98h-2c-.16-.86-.78-1.42-1.89-1.42-1.5,0-2.68,1.11-3.03,3.06-.34,1.97.46,3.07,1.95,3.07,1.11,0,1.87-.49,2.38-1.42h2c-.81,1.76-2.46,2.98-4.65,2.98-2.57,0-4.08-1.82-3.58-4.64.49-2.8,2.64-4.62,5.21-4.62Z"/>
      <path class="cls-6" d="M158.24,57.96h-1.06l.26-1.51h1.07l.39-2.23h1.87l-.39,2.23h2.16l-.26,1.51h-2.18l-.88,4.96c-.11.67.1.94.88.94h1.14l-.28,1.55h-1.46c-1.59,0-2.46-.67-2.15-2.49l.88-4.96Z"/>
      <path class="cls-6" d="M172.14,56.3c1.17,0,2.31.55,2.85,1.4l.76-4.33h1.87l-2.13,12.04h-1.87l.24-1.35c-.72.81-1.9,1.5-3.37,1.5-2.36,0-3.9-1.9-3.42-4.67.49-2.77,2.68-4.59,5.06-4.59ZM172.24,57.91c-1.38,0-2.91,1.04-3.25,2.98s.8,3.06,2.18,3.06,2.91-1.09,3.25-3.03c.34-1.92-.78-3.01-2.18-3.01Z"/>
      <path class="cls-6" d="M181.45,65.55c-2.57,0-4.16-1.82-3.66-4.64.5-2.81,2.64-4.62,5.29-4.62s4.05,1.77,3.59,4.38c-.05.28-.13.57-.23.88h-6.85c-.18,1.51.75,2.44,2.13,2.44,1.14,0,1.87-.55,2.33-1.25h2c-.78,1.56-2.41,2.81-4.6,2.81ZM179.84,60.22h4.98c.23-1.48-.72-2.36-2.1-2.36-1.29,0-2.47.88-2.88,2.36Z"/>
      <path class="cls-6" d="M190.62,65.55c-2.02,0-3.55-1.19-3.3-2.9h1.81c-.08.81.52,1.43,1.61,1.43.98,0,1.79-.33,1.79-1.09,0-1.59-4.46-1.17-4.46-4.07,0-1.58,1.45-2.64,3.55-2.64s3.45,1.15,3.24,2.88h-1.76c.08-.85-.52-1.42-1.59-1.42-.93,0-1.56.42-1.56,1.09,0,1.69,4.41,1.3,4.41,4.08,0,1.63-1.59,2.62-3.73,2.62Z"/>
      <path class="cls-6" d="M197.26,56.45h1.85l-1.58,8.96h-1.85l1.58-8.96ZM197.44,54.07c.11-.67.73-1.19,1.4-1.19s1.07.52.96,1.19c-.11.67-.73,1.19-1.38,1.19s-1.09-.52-.98-1.19Z"/>
      <path class="cls-6" d="M204.87,56.3c1.46,0,2.44.68,2.85,1.45l.23-1.3h1.87l-1.59,9.11c-.44,2.44-2.34,4.28-5.14,4.28-2.39,0-3.95-1.19-3.82-3.17h1.84c.11.93.99,1.56,2.28,1.56,1.43,0,2.65-.88,2.98-2.67l.26-1.5c-.7.76-1.9,1.5-3.37,1.5-2.36,0-3.9-1.9-3.42-4.67.49-2.77,2.68-4.59,5.04-4.59ZM204.99,57.91c-1.38,0-2.91,1.04-3.25,2.98s.8,3.06,2.18,3.06,2.91-1.09,3.25-3.03c.34-1.92-.78-3.01-2.18-3.01Z"/>
      <path class="cls-6" d="M217.61,60.4c.28-1.64-.46-2.49-1.81-2.49s-2.42.85-2.7,2.49v-.05l-.89,5.06h-1.85l1.58-8.96h1.85l-.18,1.04c.73-.75,1.81-1.19,2.88-1.19,2.1,0,3.45,1.32,3.01,3.82l-.94,5.29h-1.84l.89-5.01Z"/>
      <path class="cls-6" d="M224.42,65.55c-2.57,0-4.16-1.82-3.66-4.64.5-2.81,2.64-4.62,5.29-4.62s4.05,1.77,3.59,4.38c-.05.28-.13.57-.23.88h-6.85c-.18,1.51.75,2.44,2.13,2.44,1.14,0,1.87-.55,2.33-1.25h2c-.78,1.56-2.41,2.81-4.6,2.81ZM222.81,60.22h4.98c.23-1.48-.72-2.36-2.1-2.36-1.29,0-2.47.88-2.88,2.36Z"/>
      <path class="cls-6" d="M230.3,65.41l1.58-8.96h1.85l-.28,1.58c.7-1.04,1.71-1.72,2.99-1.72l-.34,1.92h-.47c-1.37,0-2.31.57-2.63,2.41l-.85,4.78h-1.85Z"/>
    </g>
    <g>
      <circle class="cls-8" cx="39.46" cy="36.95" r="36.44" transform="translate(-10.59 57.37) rotate(-65.32)"/>
      <path class="cls-11" d="M4.44,38.04c0-20.06,16.26-36.32,36.32-36.32,9.71,0,18.52,3.81,25.04,10.01C59.18,4.79,49.84.46,39.49.46c-20.06,0-36.32,16.26-36.32,36.32,0,10.35,4.33,19.69,11.28,26.3-6.2-6.52-10.01-15.33-10.01-25.04Z"/>
      <path class="cls-7" d="M69.65,37.05c0,16.66-13.51,30.17-30.17,30.17-8.06,0-15.39-3.16-20.8-8.32,5.5,5.77,13.25,9.37,21.85,9.37,16.66,0,30.17-13.51,30.17-30.17,0-8.6-3.6-16.36-9.37-21.85,5.15,5.41,8.32,12.74,8.32,20.8Z"/>
      <path class="cls-3" d="M69.66,36.95c0,16.68-13.52,30.2-30.2,30.2-4.4,0-8.58-.94-12.34-2.63-2.02-.91-3.93-2.03-5.69-3.34-1.55-1.16-3-2.46-4.3-3.89-2.87-3.15-5.08-6.9-6.42-11.05-.94-2.93-1.45-6.05-1.45-9.29,0-16.68,13.52-30.2,30.2-30.2,1.25,0,2.47.08,3.68.22,5.09.62,9.79,2.5,13.78,5.33,1.42,1,2.75,2.13,3.97,3.36.59.6,1.16,1.22,1.7,1.87,4.41,5.25,7.07,12.02,7.07,19.42Z"/>
      <path class="cls-9" d="M12.45,47.95c-.94-2.93-1.45-6.05-1.45-9.29,0-16.68,13.52-30.2,30.2-30.2,1.25,0,2.47.08,3.68.22,5.09.62,9.79,2.51,13.78,5.33,1.05.75,2.04,1.58,2.99,2.46-.26-.28-.5-.57-.77-.84-1.22-1.23-2.55-2.36-3.97-3.36-3.99-2.83-8.69-4.72-13.78-5.33-1.21-.15-2.44-.22-3.68-.22-16.68,0-30.2,13.52-30.2,30.2,0,3.24.51,6.36,1.45,9.29,1.34,4.15,3.55,7.9,6.42,11.05.54.6,1.13,1.16,1.72,1.71-2.85-3.14-5.05-6.88-6.38-11.01Z"/>
      <g>
        <g class="cls-16">
          <path class="cls-4" d="M42.26,61.19c-2.17,0-4.32-.39-6.3-1.15-3.38-1.31-5.89-3.58-7.29-6.59-1.09.45-2.37.41-3.59-.11-1.53-.65-2.7-1.95-3.05-3.39-.59-1.6-.79-3.99.08-5.73.41-.81,1.02-1.41,1.8-1.75-.27-1.07-.7-2.11-1.16-3.21-.39-.94-.8-1.9-1.09-2.9l-.08-.25c-.41-1.32-.82-2.68-.55-4.26.29-1.36.81-2.71,1.54-4.05,3.14-5.54,7.97-9.62,11.83-12.56l.5-.38.27.57c.48,1.02.82,2.09,1.03,3.2.33-.38.66-.78.99-1.2,1.03-1.31,2.07-2.88,3.18-4.78l.42-.72.45.7c1.18,1.84,1.88,3.53,2.14,5.16,1.7-1.31,2.92-2.66,3.69-4.12l.44-.83.46.82c1.14,2.05,1.84,4.04,2.09,5.92.43-.62.86-1.28,1.29-1.96l.5-.8.39.86c.08.18.16.35.25.54.49,1.07,1,2.17,1.32,3.24.67,2.13,1.33,4.9.58,7.53.97,1.69,1.16,3.53,1.35,5.31.04.43.09.86.14,1.29v.02c.05.57.11,1.12.17,1.66,2.22.16,3.98,2.52,3.98,5.4,0,2.46-1.29,4.6-3.12,5.23-.75,3.43-3.2,10.87-10.55,12.79-1.36.32-2.75.47-4.13.47Z"/>
        </g>
        <g>
          <g>
            <g>
              <path class="cls-4" d="M54.94,36.84c-.07,0-.14,0-.21,0-.09-.7-.16-1.41-.22-2.12-.29-2.25-.28-4.57-1.54-6.6.77-2.46.23-5.07-.52-7.46-.37-1.22-1.01-2.53-1.54-3.71-.66,1.05-1.37,2.11-2.12,3.12-.03-2.48-.94-4.94-2.14-7.11-1.04,1.94-2.73,3.52-4.56,4.82-.11-2.09-1.02-4.06-2.15-5.82-.96,1.65-2.03,3.32-3.22,4.84-.55.7-1.13,1.39-1.75,2.02-.14-1.42-.51-2.81-1.13-4.13-4.56,3.47-8.83,7.36-11.69,12.4-.66,1.2-1.19,2.5-1.49,3.89-.27,1.55.19,2.88.62,4.27.66,2.23,1.89,4.33,2.36,6.57-2.77.8-2.86,4.66-1.99,7,.59,2.52,3.97,4.38,6.4,2.95,2.77,6.65,10.72,9,17.33,7.47,5.99-1.57,9.12-7.21,10.24-12.7,1.73-.41,3.05-2.42,3.05-4.82,0-2.7-1.67-4.9-3.72-4.9Z"/>
              <path class="cls-4" d="M41.37,60.24c-2.17,0-4.32-.39-6.3-1.15-3.38-1.31-5.89-3.58-7.29-6.59-1.09.45-2.37.41-3.59-.11-1.53-.65-2.7-1.95-3.05-3.39-.59-1.6-.79-3.99.08-5.73.41-.81,1.02-1.41,1.8-1.75-.27-1.07-.7-2.11-1.16-3.21-.39-.94-.8-1.9-1.09-2.9l-.08-.25c-.41-1.32-.82-2.68-.55-4.25.29-1.36.81-2.71,1.54-4.05,3.14-5.54,7.97-9.62,11.83-12.56l.5-.38.27.57c.48,1.02.82,2.09,1.03,3.2.33-.38.66-.78.99-1.2,1.03-1.31,2.07-2.88,3.18-4.78l.42-.72.45.7c1.18,1.84,1.88,3.53,2.14,5.16,1.7-1.31,2.92-2.66,3.69-4.12l.44-.83.45.82c1.14,2.05,1.84,4.04,2.09,5.92.43-.62.86-1.28,1.29-1.96l.5-.8.39.86c.08.18.16.35.25.53.49,1.07,1,2.17,1.32,3.24.67,2.13,1.33,4.9.58,7.53.97,1.69,1.16,3.53,1.35,5.31.04.43.09.86.14,1.29v.02c.05.56.11,1.12.17,1.66,2.22.16,3.98,2.52,3.98,5.4,0,2.46-1.29,4.6-3.12,5.23-.75,3.43-3.2,10.87-10.55,12.79-1.36.32-2.75.47-4.13.47Z"/>
            </g>
            <ellipse class="cls-10" cx="54.94" cy="41.75" rx="3" ry="4.19"/>
            <g class="cls-12">
              <path class="cls-5" d="M54.21,37.56l1.1,8.53s3.63-2.24,2.55-5.29-3.66-3.24-3.66-3.24Z"/>
            </g>
            <path class="cls-4" d="M54.94,46.65c-2.05,0-3.72-2.2-3.72-4.9s1.67-4.9,3.72-4.9,3.72,2.2,3.72,4.9-1.67,4.9-3.72,4.9ZM54.94,38.27c-1.24,0-2.29,1.59-2.29,3.47s1.05,3.47,2.29,3.47,2.29-1.59,2.29-3.47-1.05-3.47-2.29-3.47Z"/>
            <g>
              <path class="cls-2" d="M28.22,50.61s2.35,8.88,15.81,8.22c6.47-.66,12.37-11.45,10.91-17.19-1.45-5.74-.66-10.82-2.84-13.39,1.52-3.76-1.32-9.63-1.32-9.63-1.52,2.38-3.17,4.16-3.17,4.16,1.25-3.89-1.06-8.18-1.06-8.18-1.45,2.38-5.35,4.75-5.35,4.75.53-2.9-1.29-5.81-1.29-5.81,0,0-2.6,4.49-5.7,7.13.13-2.77-.73-4.68-.73-4.68,0,0-10.59,7.8-12.08,15.24-.58,2.91,3.3,9.37,3.1,11.28-3.1.26-2.98,4.03-1.91,6.73.77,1.96,3.83,3.5,5.61,1.39Z"/>
              <g class="cls-12">
                <path class="cls-5" d="M44.05,57.99s-.43.62-1.5,1.42c-5.86.42-12.05-2.09-14.42-7.77-2.4,1.41-5.73-.43-6.31-2.91-.86-2.31-.77-6.12,1.96-6.91-.46-2.22-1.68-4.28-2.32-6.49-.42-1.37-.87-2.69-.61-4.22.29-1.37.82-2.66,1.47-3.84,2.82-4.98,7.04-8.81,11.54-12.24.61,1.3.98,2.67,1.12,4.07.6-.63,1.18-1.3,1.72-2,.69-.87,1.33-1.8,1.93-2.74.57.6.97,1.1.97,1.1,0,0-1.46,6.04-6.56,8.19,0,0-.5-1.78-.42-4.41-3.83,3.46-9.14,9.57-8.51,12.89.64,3.32,3.69,11.91,1.28,11.93-2.42.03-1.99,5.18.4,6.01,1.46.51,1.89-1.94,2.84-1.14.96.8,2.45,8.86,15.42,9.05Z"/>
              </g>
              <path class="cls-4" d="M55.63,41.42c-.6-2.16-.92-4.4-1.12-6.7-.29-2.25-.28-4.57-1.54-6.6.77-2.46.23-5.07-.52-7.46-.37-1.22-1.01-2.53-1.55-3.71-.66,1.05-1.37,2.11-2.12,3.12-.03-2.48-.94-4.94-2.14-7.11-1.04,1.94-2.73,3.52-4.56,4.82-.11-2.09-1.02-4.06-2.15-5.82-.96,1.65-2.03,3.32-3.22,4.84-.55.71-1.14,1.39-1.75,2.02-.14-1.42-.52-2.81-1.13-4.13-4.56,3.47-8.83,7.35-11.69,12.4-.66,1.2-1.19,2.5-1.49,3.89-.27,1.55.19,2.88.62,4.27.65,2.23,1.89,4.33,2.36,6.57-2.77.8-2.86,4.66-1.99,7,.59,2.51,3.97,4.38,6.4,2.95,2.77,6.65,10.72,9,17.33,7.47,6.52-1.71,9.65-8.24,10.49-14.15.13-1.21.1-2.47-.23-3.7ZM43.62,57.96c-3.79.16-7.7-.37-10.82-2.61-1.69-1.22-3.1-2.9-3.79-4.88-.03-.24-.33-.61-.61-.64-.34-.02-.79.23-1.03.52-1.53,1.27-3.63-.38-4.22-1.98-.56-1.75-.96-4.88,1.44-5.09l.3-.02c.22-.02.39-.19.41-.41.01-.15.02-.28.02-.28.02-1.54-.66-2.77-1.15-4.14-.8-2.2-2.19-4.85-1.95-7.11.26-1.19.72-2.35,1.33-3.46,2.32-4.12,5.87-7.59,9.57-10.57.35,1.39.36,2.91.3,4.34-.01.31.35.49.59.29,2.3-1.95,4.23-4.26,5.86-6.78.53,1.28.82,2.72.59,4.04,0,0-.11.65-.19,1.15-.04.23.21.4.41.27,2.07-1.29,4.12-2.63,5.71-4.49.78,2.03,1.13,4.31.5,6.39l-.77,2.72c-.04.14.14.24.24.13,0,0,3.5-1.72,4.29-5.1.11.3.22.6.32.9.76,2.24,1.16,4.83.39,7.03-.06.17-.02.36.1.49.04.04,1.47,1.78,1.97,6.16.26,2.28.89,4.54,1.03,6.88.6,10.06-5.93,15.63-10.82,16.24Z"/>
            </g>
          </g>
          <g>
            <path class="cls-4" d="M35.49,43.62c1.64-.38,3.49-1.23,4.13-2.9.09-.22.33-.32.55-.24.23.08.27.34.3.54.12.62-.08,1.24-.39,1.75-.98,1.4-2.77,2.06-4.43,1.74-.57-.02-.73-.73-.16-.89h0Z"/>
            <path class="cls-4" d="M47.42,39.37c.78,1.37,2.47,2.14,3.99,1.59.38-.12.67.4.38.66,0,0-.13.12-.13.12-.78.8-2.07.86-3.04.37-.97-.47-1.68-1.3-1.93-2.35-.09-.24.02-.53.28-.58.18-.04.35.04.44.19h0Z"/>
            <path class="cls-4" d="M44.71,50.51c-2.07.55-4.58.1-5.89-1.68.29-.13.6-.22.89-.26.49-.05.47-.8-.03-.82-1.15-.09-2.39.54-2.75,1.68-.14.4-.1.8-.03,1.17.08.47.82.42.82-.07,0-.26.01-.52.11-.75.06-.16.15-.3.26-.43.23.59.62,1.07,1.08,1.48,1.58,1.32,3.95,1.4,5.73.48.48-.16.31-.89-.2-.8Z"/>
            <g class="cls-12">
              <path class="cls-5" d="M49.4,46.79s.47,1.95-1.66,2.16-2.01-1.33-1.6-1.38c1.49.2,2.53.11,3.26-.79Z"/>
            </g>
            <path class="cls-4" d="M46.57,44.85c1.68-.43,4.07.78,2.45,2.68-.51.59-2.97,1.59-3.1.36.02-1.01,1.19-.76,1.93-1,1.76-.66.19-1.58-1.28-1.41-.39.05-.4-.63,0-.63h0Z"/>
          </g>
        </g>
      </g>
    </g>
  </g>
</svg>