<?xml version="1.0" encoding="UTF-8"?>
<svg id="Layer_4" data-name="Layer 4" xmlns="http://www.w3.org/2000/svg" xmlns:xlink="http://www.w3.org/1999/xlink" viewBox="0 0 64 64">
  <defs>
    <style>
      .cls-1 {
        fill: url(#linear-gradient);
      }

      .cls-1, .cls-2, .cls-3, .cls-4 {
        stroke-width: 0px;
      }

      .cls-2 {
        fill: #12283a;
      }

      .cls-3 {
        fill: #fcfdfd;
      }

      .cls-4 {
        fill: #fff;
      }
    </style>
    <linearGradient id="linear-gradient" x1="-3.57" y1="-8.09" x2="70.85" y2="75.79" gradientUnits="userSpaceOnUse">
      <stop offset=".17" stop-color="#72b1e4"/>
      <stop offset="1" stop-color="#4293d7"/>
    </linearGradient>
  </defs>
  <path class="cls-1" d="M63.7,32c0,17.51-14.19,31.7-31.7,31.7-4.61,0-9-.99-12.95-2.76-2.13-.95-4.13-2.13-5.97-3.51-1.63-1.22-3.14-2.59-4.51-4.09-3.01-3.3-5.33-7.24-6.74-11.6-.99-3.07-1.53-6.35-1.53-9.75C.3,14.49,14.49.3,32,.3c1.31,0,2.6.08,3.86.23,5.34.65,10.28,2.63,14.46,5.6,1.49,1.05,2.88,2.23,4.16,3.53.62.63,1.22,1.28,1.79,1.96,4.63,5.51,7.42,12.62,7.42,20.38Z"/>
  <g>
    <g>
      <g>
        <path class="cls-2" d="M48.46,33.32c-.07,0-.15,0-.22,0-.09-.76-.17-1.52-.24-2.28-.31-2.42-.3-4.91-1.66-7.09.83-2.65.24-5.45-.56-8.01-.39-1.31-1.08-2.72-1.66-3.99-.71,1.13-1.47,2.26-2.28,3.35-.03-2.66-1.01-5.31-2.3-7.64-1.12,2.09-2.93,3.79-4.9,5.18-.12-2.24-1.09-4.36-2.31-6.25-1.03,1.78-2.18,3.57-3.46,5.2-.59.76-1.22,1.49-1.88,2.17-.15-1.53-.55-3.02-1.22-4.43-4.9,3.73-9.49,7.9-12.56,13.32-.71,1.29-1.28,2.69-1.6,4.18-.29,1.66.2,3.09.66,4.59.7,2.4,2.04,4.65,2.53,7.06-2.97.86-3.08,5.01-2.14,7.52.64,2.7,4.27,4.71,6.88,3.17,2.98,7.15,11.52,9.68,18.63,8.03,6.44-1.69,9.8-7.75,11-13.65,1.86-.45,3.28-2.6,3.28-5.18,0-2.9-1.79-5.27-4-5.27Z"/>
        <path class="cls-2" d="M33.88,58.46c-2.34,0-4.65-.42-6.77-1.24-3.63-1.41-6.32-3.85-7.83-7.08-1.17.48-2.54.45-3.85-.11-1.65-.7-2.9-2.1-3.28-3.64-.63-1.72-.85-4.29.09-6.15.44-.87,1.1-1.51,1.93-1.88-.29-1.15-.76-2.27-1.25-3.45-.42-1.01-.85-2.04-1.17-3.11l-.08-.27c-.44-1.42-.89-2.88-.59-4.57.31-1.46.87-2.92,1.66-4.35,3.37-5.95,8.57-10.34,12.71-13.5l.54-.41.29.61c.52,1.1.89,2.25,1.1,3.44.36-.41.71-.84,1.06-1.28,1.11-1.41,2.22-3.09,3.41-5.13l.45-.78.48.75c1.27,1.97,2.02,3.8,2.3,5.54,1.83-1.41,3.13-2.86,3.97-4.42l.48-.89.49.88c1.22,2.21,1.98,4.34,2.25,6.36.46-.67.93-1.37,1.38-2.1l.54-.86.42.93c.09.19.17.38.26.57.53,1.15,1.08,2.33,1.42,3.48.72,2.29,1.43,5.27.63,8.09,1.05,1.81,1.25,3.79,1.45,5.71.05.46.1.93.16,1.39v.02c.05.61.11,1.2.18,1.78,2.38.17,4.28,2.71,4.28,5.81,0,2.65-1.39,4.94-3.36,5.62-.8,3.69-3.44,11.68-11.33,13.75-1.46.34-2.95.51-4.44.51Z"/>
      </g>
      <ellipse class="cls-4" cx="48.46" cy="38.59" rx="3.23" ry="4.5"/>
      <path class="cls-2" d="M48.46,43.85c-2.2,0-4-2.36-4-5.27,0-2.9,1.79-5.27,4-5.27s4,2.36,4,5.27-1.79,5.27-4,5.27ZM48.46,34.85c-1.33,0-2.46,1.71-2.46,3.73s1.13,3.73,2.46,3.73,2.46-1.71,2.46-3.73-1.13-3.73-2.46-3.73Z"/>
      <g>
        <path class="cls-3" d="M19.75,48.1s2.53,9.54,16.99,8.83c6.95-.71,13.29-12.31,11.73-18.47-1.56-6.17-.71-11.63-3.05-14.39,1.63-4.04-1.42-10.35-1.42-10.35-1.63,2.55-3.4,4.47-3.4,4.47,1.35-4.18-1.13-8.79-1.13-8.79-1.56,2.55-5.74,5.11-5.74,5.11.57-3.12-1.39-6.24-1.39-6.24,0,0-2.8,4.82-6.13,7.66.14-2.98-.78-5.03-.78-5.03,0,0-11.38,8.38-12.98,16.38-.62,3.12,3.55,10.07,3.33,12.12-3.33.28-3.2,4.34-2.06,7.23.83,2.1,4.11,3.76,6.03,1.49Z"/>
        <path class="cls-2" d="M49.2,38.24c-.65-2.32-.99-4.73-1.2-7.19-.31-2.41-.3-4.91-1.66-7.09.83-2.65.24-5.45-.56-8.01-.39-1.31-1.08-2.72-1.66-3.99-.71,1.13-1.47,2.26-2.28,3.36-.03-2.66-1.01-5.31-2.3-7.64-1.12,2.09-2.93,3.79-4.9,5.18-.12-2.24-1.09-4.36-2.31-6.26-1.03,1.78-2.18,3.57-3.45,5.2-.59.76-1.22,1.49-1.88,2.18-.15-1.53-.55-3.02-1.22-4.43-4.9,3.73-9.49,7.9-12.56,13.32-.71,1.29-1.28,2.69-1.6,4.19-.29,1.66.2,3.09.66,4.59.7,2.4,2.04,4.65,2.53,7.06-2.97.86-3.08,5.01-2.14,7.52.64,2.7,4.27,4.71,6.88,3.17,2.98,7.15,11.51,9.68,18.63,8.03,7.01-1.84,10.37-8.86,11.27-15.21.14-1.3.1-2.66-.25-3.97ZM36.3,56.01c-4.07.17-8.28-.4-11.62-2.81-1.82-1.31-3.33-3.12-4.08-5.24-.04-.26-.36-.65-.66-.68-.37-.02-.85.25-1.1.55-1.64,1.37-3.91-.41-4.53-2.13-.6-1.88-1.03-5.24,1.55-5.46l.32-.02c.23-.02.42-.2.44-.44.01-.16.02-.3.02-.3.02-1.65-.71-2.98-1.23-4.45-.86-2.37-2.36-5.21-2.1-7.64.27-1.27.77-2.53,1.43-3.71,2.49-4.43,6.31-8.16,10.28-11.35.38,1.49.39,3.12.32,4.66-.02.34.38.53.63.31,2.47-2.1,4.55-4.58,6.3-7.28.57,1.38.88,2.92.63,4.34,0,0-.12.69-.21,1.24-.04.25.23.43.44.29,2.23-1.39,4.42-2.82,6.14-4.82.84,2.18,1.21,4.63.54,6.87l-.83,2.92c-.04.15.15.26.26.14,0,0,3.76-1.84,4.61-5.48.12.32.24.65.35.97.82,2.41,1.24,5.19.42,7.55-.06.18-.02.39.11.53.04.04,1.58,1.92,2.11,6.62.27,2.45.96,4.88,1.11,7.4.64,10.81-6.37,16.79-11.63,17.45Z"/>
      </g>
    </g>
    <g>
      <path class="cls-2" d="M27.56,40.6c1.76-.4,3.75-1.33,4.43-3.12.09-.23.36-.35.59-.25.25.09.29.36.33.58.13.67-.08,1.33-.42,1.88-1.05,1.51-2.97,2.22-4.76,1.87-.61-.02-.78-.78-.18-.96h0Z"/>
      <path class="cls-2" d="M40.38,36.03c.84,1.47,2.65,2.3,4.29,1.71.41-.12.72.43.4.71,0,0-.14.13-.14.13-.83.86-2.22.92-3.26.39-1.05-.5-1.8-1.4-2.07-2.53-.1-.26.02-.57.31-.63.19-.04.38.04.47.2h0Z"/>
      <path class="cls-2" d="M37.47,48c-2.22.59-4.92.11-6.33-1.81.31-.14.65-.23.96-.27.53-.06.5-.86-.03-.88-1.23-.09-2.57.58-2.95,1.81-.15.43-.11.86-.03,1.25.08.51.88.45.88-.07,0-.28.01-.56.12-.8.06-.17.16-.33.28-.46.25.64.66,1.15,1.16,1.59,1.7,1.41,4.24,1.5,6.16.51.51-.17.33-.96-.21-.86Z"/>
      <path class="cls-2" d="M39.47,41.92c1.81-.46,4.38.83,2.64,2.88-.54.64-3.19,1.7-3.33.38.02-1.08,1.27-.82,2.07-1.07,1.89-.71.21-1.7-1.38-1.51-.42.05-.42-.67,0-.68h0Z"/>
    </g>
  </g>
</svg>